<mxfile host="65bd71144e">
    <diagram id="sGY43QkBSt7u4VZnkP2N" name="第 1 页">
        <mxGraphModel dx="1073" dy="716" grid="1" gridSize="10" guides="1" tooltips="1" connect="1" arrows="1" fold="1" page="1" pageScale="1" pageWidth="827" pageHeight="1169" math="0" shadow="0">
            <root>
                <mxCell id="0"/>
                <mxCell id="1" parent="0"/>
                <mxCell id="16" value="" style="edgeStyle=none;sketch=0;hachureGap=4;jiggle=2;curveFitting=1;html=1;fontFamily=Garamond;fontSize=18;" parent="1" source="2" target="3" edge="1">
                    <mxGeometry relative="1" as="geometry"/>
                </mxCell>
                <mxCell id="2" value="&lt;font style=&quot;font-size: 18px;&quot; face=&quot;Garamond&quot;&gt;proto文件&lt;/font&gt;" style="whiteSpace=wrap;html=1;hachureGap=4;fontFamily=Architects Daughter;fontSource=https%3A%2F%2Ffonts.googleapis.com%2Fcss%3Ffamily%3DArchitects%2BDaughter;fontSize=20;" parent="1" vertex="1">
                    <mxGeometry x="348" y="90" width="120" height="50" as="geometry"/>
                </mxCell>
                <mxCell id="11" style="edgeStyle=none;sketch=0;hachureGap=4;jiggle=2;curveFitting=1;html=1;exitX=0.5;exitY=1;exitDx=0;exitDy=0;entryX=0.5;entryY=0;entryDx=0;entryDy=0;fontFamily=Garamond;fontSize=18;" parent="1" source="3" target="6" edge="1">
                    <mxGeometry relative="1" as="geometry"/>
                </mxCell>
                <mxCell id="12" style="edgeStyle=none;sketch=0;hachureGap=4;jiggle=2;curveFitting=1;html=1;exitX=0.5;exitY=1;exitDx=0;exitDy=0;entryX=0.5;entryY=0;entryDx=0;entryDy=0;fontFamily=Garamond;fontSize=18;" parent="1" source="3" target="7" edge="1">
                    <mxGeometry relative="1" as="geometry"/>
                </mxCell>
                <mxCell id="3" value="&lt;font face=&quot;Garamond&quot;&gt;&lt;font style=&quot;font-size: 18px;&quot;&gt;pb.h文件&lt;br&gt;pb.cc文件&lt;/font&gt;&lt;br&gt;&lt;/font&gt;" style="whiteSpace=wrap;html=1;hachureGap=4;fontFamily=Architects Daughter;fontSource=https%3A%2F%2Ffonts.googleapis.com%2Fcss%3Ffamily%3DArchitects%2BDaughter;fontSize=20;" parent="1" vertex="1">
                    <mxGeometry x="348" y="190" width="120" height="50" as="geometry"/>
                </mxCell>
                <mxCell id="21" style="edgeStyle=none;html=1;exitX=0.5;exitY=1;exitDx=0;exitDy=0;entryX=0.5;entryY=0;entryDx=0;entryDy=0;fontSize=12;fontColor=#F0F0F0;" edge="1" parent="1" source="6" target="20">
                    <mxGeometry relative="1" as="geometry"/>
                </mxCell>
                <mxCell id="22" value="2.传递方法名、controller、请求、响应、回调函数&lt;br&gt;等参数，调用CallMethod函数" style="edgeLabel;html=1;align=center;verticalAlign=middle;resizable=0;points=[];fontSize=12;fontColor=#F0F0F0;" vertex="1" connectable="0" parent="21">
                    <mxGeometry x="-0.3796" y="-1" relative="1" as="geometry">
                        <mxPoint x="-3" y="30" as="offset"/>
                    </mxGeometry>
                </mxCell>
                <mxCell id="6" value="&lt;font style=&quot;font-size: 18px;&quot; face=&quot;Garamond&quot;&gt;Service_Stub类&lt;br&gt;&lt;/font&gt;" style="whiteSpace=wrap;html=1;hachureGap=4;fontFamily=Architects Daughter;fontSource=https%3A%2F%2Ffonts.googleapis.com%2Fcss%3Ffamily%3DArchitects%2BDaughter;fontSize=20;" parent="1" vertex="1">
                    <mxGeometry x="164" y="260" width="120" height="50" as="geometry"/>
                </mxCell>
                <mxCell id="38" style="edgeStyle=none;html=1;exitX=1;exitY=0.5;exitDx=0;exitDy=0;fontSize=12;fontColor=#F0F0F0;entryX=0.5;entryY=0;entryDx=0;entryDy=0;" edge="1" parent="1" source="7" target="37">
                    <mxGeometry relative="1" as="geometry">
                        <mxPoint x="710" y="620" as="targetPoint"/>
                        <Array as="points">
                            <mxPoint x="780" y="360"/>
                            <mxPoint x="780" y="470"/>
                        </Array>
                    </mxGeometry>
                </mxCell>
                <mxCell id="40" value="7.调用服务端方法的具体实现" style="edgeLabel;html=1;align=center;verticalAlign=middle;resizable=0;points=[];fontSize=12;fontColor=#F0F0F0;" vertex="1" connectable="0" parent="38">
                    <mxGeometry x="0.4993" y="-2" relative="1" as="geometry">
                        <mxPoint x="-24" y="-67" as="offset"/>
                    </mxGeometry>
                </mxCell>
                <mxCell id="7" value="&lt;font face=&quot;Garamond&quot;&gt;&lt;span style=&quot;font-size: 18px;&quot;&gt;Service类&lt;/span&gt;&lt;/font&gt;" style="whiteSpace=wrap;html=1;hachureGap=4;fontFamily=Architects Daughter;fontSource=https%3A%2F%2Ffonts.googleapis.com%2Fcss%3Ffamily%3DArchitects%2BDaughter;fontSize=20;" parent="1" vertex="1">
                    <mxGeometry x="534" y="260" width="120" height="50" as="geometry"/>
                </mxCell>
                <mxCell id="13" value="" style="edgeStyle=none;hachureGap=4;html=1;fontFamily=Garamond;fontSize=16;endArrow=none;" parent="1" edge="1">
                    <mxGeometry relative="1" as="geometry">
                        <mxPoint x="544" y="130" as="sourcePoint"/>
                        <mxPoint x="544" y="130" as="targetPoint"/>
                    </mxGeometry>
                </mxCell>
                <mxCell id="14" value="&lt;font style=&quot;font-size: 14px;&quot;&gt;protoc编译&lt;/font&gt;" style="edgeLabel;html=1;align=center;verticalAlign=middle;resizable=0;points=[];fontSize=20;fontFamily=Garamond;" parent="13" vertex="1" connectable="0">
                    <mxGeometry x="-0.2" y="4" relative="1" as="geometry">
                        <mxPoint x="-136" y="30" as="offset"/>
                    </mxGeometry>
                </mxCell>
                <mxCell id="18" style="edgeStyle=none;html=1;exitX=0.5;exitY=0;exitDx=0;exitDy=0;entryX=0;entryY=0.5;entryDx=0;entryDy=0;" edge="1" parent="1" source="17" target="6">
                    <mxGeometry relative="1" as="geometry">
                        <mxPoint x="120" y="450" as="targetPoint"/>
                        <Array as="points">
                            <mxPoint x="60" y="480"/>
                            <mxPoint x="60" y="360"/>
                        </Array>
                    </mxGeometry>
                </mxCell>
                <mxCell id="19" value="&lt;font style=&quot;font-size: 12px;&quot;&gt;1.构建controller、请求、响应、回调函数&lt;br&gt;等参数，调用服务API&lt;/font&gt;" style="edgeLabel;html=1;align=center;verticalAlign=middle;resizable=0;points=[];" vertex="1" connectable="0" parent="18">
                    <mxGeometry x="-0.1621" y="1" relative="1" as="geometry">
                        <mxPoint x="51" y="74" as="offset"/>
                    </mxGeometry>
                </mxCell>
                <mxCell id="17" value="&lt;font face=&quot;Garamond&quot;&gt;&lt;span style=&quot;font-size: 18px;&quot;&gt;客户端&lt;/span&gt;&lt;/font&gt;" style="whiteSpace=wrap;html=1;hachureGap=4;fontFamily=Architects Daughter;fontSource=https%3A%2F%2Ffonts.googleapis.com%2Fcss%3Ffamily%3DArchitects%2BDaughter;fontSize=20;" vertex="1" parent="1">
                    <mxGeometry x="44" y="630" width="120" height="50" as="geometry"/>
                </mxCell>
                <mxCell id="27" style="edgeStyle=none;html=1;entryX=0;entryY=0;entryDx=0;entryDy=0;fontSize=12;fontColor=#F0F0F0;" edge="1" parent="1" source="20" target="24">
                    <mxGeometry relative="1" as="geometry"/>
                </mxCell>
                <mxCell id="28" value="3.序列化请求数据" style="edgeLabel;html=1;align=center;verticalAlign=middle;resizable=0;points=[];fontSize=12;fontColor=#F0F0F0;" vertex="1" connectable="0" parent="27">
                    <mxGeometry x="-0.3832" y="1" relative="1" as="geometry">
                        <mxPoint x="-29" y="7" as="offset"/>
                    </mxGeometry>
                </mxCell>
                <mxCell id="51" style="edgeStyle=none;html=1;exitX=0.25;exitY=1;exitDx=0;exitDy=0;entryX=0.75;entryY=0;entryDx=0;entryDy=0;fontSize=12;fontColor=#F0F0F0;" edge="1" parent="1" source="20" target="17">
                    <mxGeometry relative="1" as="geometry"/>
                </mxCell>
                <mxCell id="52" value="11.回调函数处理响应数据" style="edgeLabel;html=1;align=center;verticalAlign=middle;resizable=0;points=[];fontSize=12;fontColor=#F0F0F0;" vertex="1" connectable="0" parent="51">
                    <mxGeometry x="0.5638" relative="1" as="geometry">
                        <mxPoint x="20" y="7" as="offset"/>
                    </mxGeometry>
                </mxCell>
                <mxCell id="20" value="&lt;span style=&quot;background-color: rgb(31, 31, 31); font-family: Consolas, &amp;quot;Courier New&amp;quot;, monospace; font-size: 17px;&quot;&gt;RpcChannel类&lt;/span&gt;" style="whiteSpace=wrap;html=1;hachureGap=4;fontFamily=Architects Daughter;fontSource=https%3A%2F%2Ffonts.googleapis.com%2Fcss%3Ffamily%3DArchitects%2BDaughter;fontSize=20;" vertex="1" parent="1">
                    <mxGeometry x="150" y="410" width="120" height="50" as="geometry"/>
                </mxCell>
                <mxCell id="29" style="edgeStyle=none;html=1;exitX=1;exitY=0.25;exitDx=0;exitDy=0;entryX=0;entryY=0.25;entryDx=0;entryDy=0;fontSize=12;fontColor=#F0F0F0;" edge="1" parent="1" source="24" target="26">
                    <mxGeometry relative="1" as="geometry"/>
                </mxCell>
                <mxCell id="30" value="4.1.TcpConnection类建立连接" style="edgeLabel;html=1;align=center;verticalAlign=middle;resizable=0;points=[];fontSize=12;fontColor=#F0F0F0;" vertex="1" connectable="0" parent="29">
                    <mxGeometry x="-0.4234" y="-1" relative="1" as="geometry">
                        <mxPoint x="50" y="9" as="offset"/>
                    </mxGeometry>
                </mxCell>
                <mxCell id="43" style="edgeStyle=none;html=1;exitX=1;exitY=0;exitDx=0;exitDy=0;entryX=0;entryY=0.25;entryDx=0;entryDy=0;fontSize=12;fontColor=#F0F0F0;" edge="1" parent="1" source="24" target="31">
                    <mxGeometry relative="1" as="geometry"/>
                </mxCell>
                <mxCell id="45" value="4.2.TcpConnection类发送数据" style="edgeLabel;html=1;align=center;verticalAlign=middle;resizable=0;points=[];fontSize=12;fontColor=#F0F0F0;" vertex="1" connectable="0" parent="43">
                    <mxGeometry x="0.1844" y="-1" relative="1" as="geometry">
                        <mxPoint x="-19" y="-9" as="offset"/>
                    </mxGeometry>
                </mxCell>
                <mxCell id="49" style="edgeStyle=none;html=1;exitX=0.75;exitY=0;exitDx=0;exitDy=0;entryX=0.75;entryY=1;entryDx=0;entryDy=0;fontSize=12;fontColor=#F0F0F0;" edge="1" parent="1" source="24" target="20">
                    <mxGeometry relative="1" as="geometry"/>
                </mxCell>
                <mxCell id="50" value="10.反序列话化响应数据" style="edgeLabel;html=1;align=center;verticalAlign=middle;resizable=0;points=[];fontSize=12;fontColor=#F0F0F0;" vertex="1" connectable="0" parent="49">
                    <mxGeometry x="-0.289" y="2" relative="1" as="geometry">
                        <mxPoint as="offset"/>
                    </mxGeometry>
                </mxCell>
                <mxCell id="24" value="&lt;span style=&quot;background-color: rgb(31, 31, 31); font-family: Consolas, &amp;quot;Courier New&amp;quot;, monospace; font-size: 17px;&quot;&gt;TcpClient类&lt;/span&gt;" style="whiteSpace=wrap;html=1;hachureGap=4;fontFamily=Architects Daughter;fontSource=https%3A%2F%2Ffonts.googleapis.com%2Fcss%3Ffamily%3DArchitects%2BDaughter;fontSize=20;" vertex="1" parent="1">
                    <mxGeometry x="226" y="535" width="120" height="50" as="geometry"/>
                </mxCell>
                <mxCell id="32" style="edgeStyle=none;html=1;exitX=0.5;exitY=0;exitDx=0;exitDy=0;entryX=0.75;entryY=1;entryDx=0;entryDy=0;fontSize=12;fontColor=#F0F0F0;" edge="1" parent="1" source="26" target="31">
                    <mxGeometry relative="1" as="geometry"/>
                </mxCell>
                <mxCell id="33" value="5.服务端存储新建立的连接" style="edgeLabel;html=1;align=center;verticalAlign=middle;resizable=0;points=[];fontSize=12;fontColor=#F0F0F0;" vertex="1" connectable="0" parent="32">
                    <mxGeometry x="-0.1341" y="3" relative="1" as="geometry">
                        <mxPoint as="offset"/>
                    </mxGeometry>
                </mxCell>
                <mxCell id="26" value="&lt;span style=&quot;background-color: rgb(31, 31, 31); font-family: Consolas, &amp;quot;Courier New&amp;quot;, monospace; font-size: 17px;&quot;&gt;TcpServer类&lt;br&gt;&lt;/span&gt;" style="whiteSpace=wrap;html=1;hachureGap=4;fontFamily=Architects Daughter;fontSource=https%3A%2F%2Ffonts.googleapis.com%2Fcss%3Ffamily%3DArchitects%2BDaughter;fontSize=20;" vertex="1" parent="1">
                    <mxGeometry x="534" y="590" width="120" height="50" as="geometry"/>
                </mxCell>
                <mxCell id="34" style="edgeStyle=none;html=1;exitX=0.5;exitY=0;exitDx=0;exitDy=0;entryX=0.5;entryY=1;entryDx=0;entryDy=0;fontSize=12;fontColor=#F0F0F0;" edge="1" parent="1" source="31" target="7">
                    <mxGeometry relative="1" as="geometry"/>
                </mxCell>
                <mxCell id="35" value="6.反序列数据，获取方法名、请求，&lt;br&gt;构建controller、响应、回调函数等参数，&lt;br&gt;调用CallMethod函数" style="edgeLabel;html=1;align=center;verticalAlign=middle;resizable=0;points=[];fontSize=12;fontColor=#F0F0F0;" vertex="1" connectable="0" parent="34">
                    <mxGeometry x="0.2209" y="1" relative="1" as="geometry">
                        <mxPoint as="offset"/>
                    </mxGeometry>
                </mxCell>
                <mxCell id="46" style="edgeStyle=none;html=1;exitX=0;exitY=1;exitDx=0;exitDy=0;entryX=1;entryY=0.25;entryDx=0;entryDy=0;fontSize=12;fontColor=#F0F0F0;" edge="1" parent="1" source="31" target="24">
                    <mxGeometry relative="1" as="geometry"/>
                </mxCell>
                <mxCell id="47" value="9." style="edgeLabel;html=1;align=center;verticalAlign=middle;resizable=0;points=[];fontSize=12;fontColor=#F0F0F0;" vertex="1" connectable="0" parent="46">
                    <mxGeometry x="-0.2147" y="-2" relative="1" as="geometry">
                        <mxPoint as="offset"/>
                    </mxGeometry>
                </mxCell>
                <mxCell id="48" value="9.发送序列化响应数据" style="edgeLabel;html=1;align=center;verticalAlign=middle;resizable=0;points=[];fontSize=12;fontColor=#F0F0F0;" vertex="1" connectable="0" parent="46">
                    <mxGeometry x="-0.2721" relative="1" as="geometry">
                        <mxPoint x="23" as="offset"/>
                    </mxGeometry>
                </mxCell>
                <mxCell id="31" value="&lt;span style=&quot;background-color: rgb(31, 31, 31); font-family: Consolas, &amp;quot;Courier New&amp;quot;, monospace; font-size: 17px;&quot;&gt;Dispather类&lt;/span&gt;" style="whiteSpace=wrap;html=1;hachureGap=4;fontFamily=Architects Daughter;fontSource=https%3A%2F%2Ffonts.googleapis.com%2Fcss%3Ffamily%3DArchitects%2BDaughter;fontSize=20;" vertex="1" parent="1">
                    <mxGeometry x="520" y="410" width="120" height="50" as="geometry"/>
                </mxCell>
                <mxCell id="41" style="edgeStyle=none;html=1;exitX=0.5;exitY=0;exitDx=0;exitDy=0;entryX=1;entryY=0.5;entryDx=0;entryDy=0;fontSize=12;fontColor=#F0F0F0;" edge="1" parent="1" source="37" target="31">
                    <mxGeometry relative="1" as="geometry"/>
                </mxCell>
                <mxCell id="42" value="8.处理完成，&lt;br&gt;回调函数执行序列化操作" style="edgeLabel;html=1;align=center;verticalAlign=middle;resizable=0;points=[];fontSize=12;fontColor=#F0F0F0;" vertex="1" connectable="0" parent="41">
                    <mxGeometry x="-0.2114" relative="1" as="geometry">
                        <mxPoint x="-20" y="7" as="offset"/>
                    </mxGeometry>
                </mxCell>
                <mxCell id="37" value="&lt;font face=&quot;Garamond&quot;&gt;&lt;span style=&quot;font-size: 18px;&quot;&gt;服务端&lt;/span&gt;&lt;/font&gt;" style="whiteSpace=wrap;html=1;hachureGap=4;fontFamily=Architects Daughter;fontSource=https%3A%2F%2Ffonts.googleapis.com%2Fcss%3Ffamily%3DArchitects%2BDaughter;fontSize=20;" vertex="1" parent="1">
                    <mxGeometry x="680" y="630" width="120" height="50" as="geometry"/>
                </mxCell>
                <mxCell id="53" value="" style="rounded=0;whiteSpace=wrap;html=1;fontSize=12;fontColor=#F0F0F0;fillColor=none;dashed=1;" vertex="1" parent="1">
                    <mxGeometry x="120" y="80" width="580" height="240" as="geometry"/>
                </mxCell>
            </root>
        </mxGraphModel>
    </diagram>
</mxfile>